<svg width="35" height="35" viewBox="0 0 35 35" fill="none" xmlns="http://www.w3.org/2000/svg">
<rect x="0.140625" y="0.149414" width="34" height="34" rx="17" fill="black"/>
<g clip-path="url(#clip0_887_2687)">
<path d="M13.8638 8.85127C12.9518 8.85127 12.1058 9.07927 11.3258 9.53527C10.5698 9.97927 9.9698 10.5793 9.5258 11.3353C9.0698 12.1153 8.8418 12.9613 8.8418 13.8733V20.4253C8.8418 21.3373 9.0698 22.1833 9.5258 22.9633C9.9698 23.7193 10.5698 24.3193 11.3258 24.7633C12.1058 25.2193 12.9518 25.4473 13.8638 25.4473H20.4158C21.3278 25.4473 22.1738 25.2193 22.9538 24.7633C23.7098 24.3193 24.3098 23.7193 24.7538 22.9633C25.2098 22.1833 25.4378 21.3373 25.4378 20.4253V13.8733C25.4378 12.9613 25.2098 12.1153 24.7538 11.3353C24.3098 10.5793 23.7098 9.97927 22.9538 9.53527C22.1738 9.07927 21.3278 8.85127 20.4158 8.85127H13.8638ZM21.5138 11.9113C21.7538 11.9113 21.9578 11.9953 22.1258 12.1633C22.2938 12.3313 22.3778 12.5353 22.3778 12.7753C22.3778 13.0153 22.2938 13.2223 22.1258 13.3963C21.9578 13.5703 21.7538 13.6573 21.5138 13.6573C21.2738 13.6573 21.0668 13.5703 20.8928 13.3963C20.7188 13.2223 20.6318 13.0153 20.6318 12.7753C20.6318 12.5353 20.7188 12.3313 20.8928 12.1633C21.0668 11.9953 21.2738 11.9113 21.5138 11.9113ZM17.1398 12.7753C17.9318 12.7753 18.6638 12.9703 19.3358 13.3603C20.0078 13.7503 20.5388 14.2813 20.9288 14.9533C21.3188 15.6253 21.5138 16.3573 21.5138 17.1493C21.5138 17.9413 21.3188 18.6703 20.9288 19.3363C20.5388 20.0023 20.0078 20.5303 19.3358 20.9203C18.6638 21.3103 17.9318 21.5053 17.1398 21.5053C16.3478 21.5053 15.6188 21.3103 14.9528 20.9203C14.2868 20.5303 13.7588 20.0023 13.3688 19.3363C12.9788 18.6703 12.7838 17.9413 12.7838 17.1493C12.7838 16.3573 12.9788 15.6253 13.3688 14.9533C13.7588 14.2813 14.2868 13.7503 14.9528 13.3603C15.6188 12.9703 16.3478 12.7753 17.1398 12.7753ZM17.1398 14.0893C16.7678 14.0893 16.3778 14.1673 15.9698 14.3233C15.5738 14.5033 15.2408 14.7283 14.9708 14.9983C14.7008 15.2683 14.4818 15.5953 14.3138 15.9793C14.1578 16.3873 14.0798 16.7773 14.0798 17.1493C14.0798 17.5213 14.1578 17.9113 14.3138 18.3193C14.4938 18.7153 14.7158 19.0453 14.9798 19.3093C15.2438 19.5733 15.5738 19.7953 15.9698 19.9753C16.3778 20.1313 16.7678 20.2093 17.1398 20.2093C17.5118 20.2093 17.9018 20.1313 18.3098 19.9753C18.6938 19.8073 19.0208 19.5883 19.2908 19.3183C19.5608 19.0483 19.7858 18.7153 19.9658 18.3193C20.1218 17.9113 20.1998 17.5213 20.1998 17.1493C20.1998 16.7773 20.1218 16.3873 19.9658 15.9793C19.8098 15.5953 19.5908 15.2623 19.3088 14.9803C19.0268 14.6983 18.6938 14.4793 18.3098 14.3233C17.9018 14.1673 17.5118 14.0893 17.1398 14.0893Z" fill="white"/>
</g>
<defs>
<clipPath id="clip0_887_2687">
<rect width="18" height="18" fill="white" transform="matrix(1 0 0 -1 8.14062 26.1494)"/>
</clipPath>
</defs>
</svg>
