<svg width="35" height="35" viewBox="0 0 35 35" fill="none" xmlns="http://www.w3.org/2000/svg">
<rect x="0.140625" y="0.149414" width="34" height="34" rx="17" fill="black"/>
<g clip-path="url(#clip0_887_2679)">
<path d="M8.64453 11.0298C8.64453 10.4778 8.83053 10.0278 9.20253 9.67984C9.57453 9.33184 10.0725 9.15784 10.6965 9.15784C11.3205 9.15784 11.8185 9.33484 12.1905 9.68884C12.5625 10.0428 12.7485 10.5078 12.7485 11.0838C12.7485 11.5998 12.5565 12.0348 12.1725 12.3888C11.7885 12.7428 11.2905 12.9198 10.6785 12.9198H10.6605C10.0485 12.9198 9.55953 12.7398 9.19353 12.3798C8.82753 12.0198 8.64453 11.5698 8.64453 11.0298ZM8.86053 25.3398V14.4138H12.4965V25.3398H8.86053ZM14.5125 25.3398H18.1665V19.2378C18.1665 18.8538 18.2085 18.5598 18.2925 18.3558C18.4365 17.9838 18.6705 17.6688 18.9945 17.4108C19.3185 17.1528 19.7085 17.0238 20.1645 17.0238C21.3885 17.0238 22.0005 17.8518 22.0005 19.5078V25.3398H25.6365V19.0758C25.6365 17.4438 25.2555 16.2168 24.4935 15.3948C23.7315 14.5728 22.7205 14.1618 21.4605 14.1618C20.0325 14.1618 18.9345 14.7618 18.1665 15.9618V15.9978H18.1485L18.1665 15.9618V14.4138H14.5125C14.5365 14.8698 14.5485 15.9558 14.5485 17.6718C14.5485 18.5958 14.5425 20.4138 14.5305 23.1258L14.5125 25.3398Z" fill="white"/>
</g>
<defs>
<clipPath id="clip0_887_2679">
<rect width="18" height="18" fill="white" transform="matrix(1 0 0 -1 8.14062 26.1494)"/>
</clipPath>
</defs>
</svg>
