<svg width="170" height="50" viewBox="0 0 170 50" fill="none" xmlns="http://www.w3.org/2000/svg">
<path d="M68.5693 19.1271L66.827 23.1579H70.3121L68.5693 19.1271ZM68.5693 16.2475L73.5502 27.6299H72.1368L70.7158 24.272H66.4384L65.0173 27.6299H63.6035L68.5693 16.2475Z" fill="#001066"/>
<path d="M73.2871 27.6299L79.4421 17.8705H74.4462V16.6813H81.6478L75.5529 26.3883H81.4013V27.6299H73.2871Z" fill="#001066"/>
<path d="M90.8467 20.9221L91.3251 20.6451C91.664 20.4359 91.9199 20.1993 92.0917 19.9347C92.2639 19.6706 92.3498 19.3816 92.3498 19.0672C92.3498 18.6936 92.233 18.393 91.9985 18.1662C91.764 17.9395 91.4522 17.8261 91.0636 17.8261C90.6848 17.8261 90.3756 17.9455 90.1364 18.1847C89.8968 18.4243 89.7774 18.7284 89.7774 19.0973C89.7774 19.282 89.8109 19.4615 89.8783 19.6358C89.9453 19.8102 90.0441 19.9721 90.1738 20.122L90.8467 20.9221ZM93.0382 25.4692L90.3906 22.268L90.069 22.4849C89.4707 22.8937 89.058 23.2626 88.8313 23.5916C88.6041 23.9205 88.4911 24.2873 88.4911 24.691C88.4911 25.2695 88.6818 25.7505 89.0632 26.1348C89.4445 26.5183 89.9221 26.7107 90.4954 26.7107C90.9043 26.7107 91.3127 26.6107 91.7215 26.411C92.1304 26.2117 92.5693 25.8978 93.0382 25.4692ZM94.8175 27.6302L93.7632 26.359C93.2796 26.8477 92.7612 27.2149 92.2077 27.4623C91.6545 27.7088 91.0636 27.832 90.4353 27.832C89.4682 27.832 88.6857 27.5456 88.087 26.9723C87.4892 26.3989 87.1895 25.6538 87.1895 24.7356C87.1895 24.0829 87.3982 23.4786 87.8139 22.9225C88.2305 22.3668 88.86 21.8467 89.7026 21.3631L89.2539 20.8619C89.0142 20.5781 88.8373 20.289 88.723 19.9944C88.608 19.7007 88.5508 19.3816 88.5508 19.0376C88.5508 18.3595 88.7836 17.8072 89.25 17.3808C89.716 16.9547 90.3206 16.7417 91.0636 16.7417C91.8164 16.7417 92.4181 16.9509 92.8695 17.37C93.3208 17.7887 93.5463 18.3445 93.5463 19.0376C93.5463 19.5757 93.3882 20.0631 93.0717 20.4995C92.7548 20.9358 92.2502 21.3631 91.557 21.7818L93.9427 24.6613C94.1424 24.4419 94.3489 24.1911 94.5632 23.9098C94.7775 23.6281 95.0047 23.3103 95.2439 22.956L96.0444 23.8308C95.8301 24.155 95.6068 24.4578 95.3749 24.7395C95.143 25.0212 94.8999 25.2845 94.6457 25.5289L96.3957 27.6302H94.8175Z" fill="#001066"/>
<path d="M103.897 21.535H104.555C105.672 21.535 106.423 21.404 106.809 21.1425C107.196 20.8805 107.389 20.4232 107.389 19.7704C107.389 19.0721 107.191 18.5812 106.794 18.2969C106.398 18.0126 105.651 17.8705 104.555 17.8705H103.897V21.535ZM103.897 22.7165V27.6299H102.625V16.6817H104.921C105.724 16.6817 106.314 16.7238 106.694 16.8088C107.072 16.8934 107.401 17.033 107.681 17.2276C108.029 17.4767 108.302 17.8185 108.5 18.2518C108.696 18.6856 108.795 19.167 108.795 19.6952C108.795 20.2239 108.696 20.7049 108.5 21.1386C108.302 21.5724 108.029 21.9138 107.681 22.1633C107.401 22.3626 107.073 22.5047 106.697 22.5893C106.321 22.6744 105.729 22.7165 104.921 22.7165H104.555H103.897Z" fill="#001066"/>
<path d="M113.028 19.1271L111.286 23.1579H114.771L113.028 19.1271ZM113.028 16.2475L118.009 27.6299H116.596L115.175 24.272H110.897L109.476 27.6299H108.062L113.028 16.2475Z" fill="#001066"/>
<path d="M120.408 17.7807V21.4453H121.403C122.42 21.4453 123.101 21.3143 123.444 21.0527C123.788 20.7908 123.96 20.3334 123.96 19.6802C123.96 18.9772 123.783 18.485 123.43 18.2033C123.075 17.9216 122.4 17.7807 121.403 17.7807H120.408ZM119.137 27.6299V16.6813H121.709C122.442 16.6813 122.98 16.7225 123.321 16.805C123.662 16.887 123.963 17.0283 124.222 17.2271C124.546 17.4818 124.798 17.8219 124.978 18.248C125.157 18.6744 125.247 19.1468 125.247 19.6652C125.247 20.5627 124.996 21.2443 124.495 21.7107C123.994 22.1766 123.26 22.4098 122.293 22.4098H122.061L126.241 27.6299H124.588L120.595 22.4098H120.408V27.6299H119.137Z" fill="#001066"/>
<path d="M129.248 27.6299V17.9229H126.152V16.6813H133.646V17.9229H130.564V27.6299H129.248Z" fill="#001066"/>
<path d="M135.096 27.6301V16.2478L143.105 24.9976V16.6815H144.347V28.0562L136.337 19.4039V27.6301H135.096Z" fill="#001066"/>
<path d="M146.963 27.6299V16.6813H152.736V17.8705H148.264V21.0115H152.736V22.223H148.264V26.4184H152.736V27.6299H146.963Z" fill="#001066"/>
<path d="M156.215 17.7807V21.4453H157.209C158.227 21.4453 158.907 21.3143 159.251 21.0527C159.595 20.7908 159.767 20.3334 159.767 19.6802C159.767 18.9772 159.59 18.485 159.236 18.2033C158.882 17.9216 158.207 17.7807 157.209 17.7807H156.215ZM154.943 27.6299V16.6813H157.516C158.249 16.6813 158.786 16.7225 159.128 16.805C159.469 16.887 159.769 17.0283 160.029 17.2271C160.353 17.4818 160.605 17.8219 160.784 18.248C160.964 18.6744 161.054 19.1468 161.054 19.6652C161.054 20.5627 160.803 21.2443 160.302 21.7107C159.801 22.1766 159.067 22.4098 158.099 22.4098H157.868L162.048 27.6299H160.395L156.402 22.4098H156.215V27.6299H154.943Z" fill="#001066"/>
<path d="M167.125 21.5499C167.838 21.854 168.375 22.2581 168.737 22.7614C169.099 23.2652 169.279 23.8608 169.279 24.5488C169.279 25.5563 168.959 26.3676 168.318 26.9834C167.678 27.5988 166.829 27.9067 165.772 27.9067C164.909 27.9067 164.187 27.6864 163.603 27.2449C163.02 26.8039 162.626 26.1769 162.422 25.3639L163.603 24.7803C163.763 25.4438 164.025 25.9463 164.392 26.2877C164.759 26.6295 165.219 26.8 165.772 26.8C166.425 26.8 166.954 26.6119 167.357 26.2353C167.761 25.8591 167.963 25.3691 167.963 24.7657C167.963 24.277 167.822 23.8522 167.541 23.4906C167.259 23.129 166.834 22.8237 166.266 22.5746L164.934 22.006C164.206 21.7019 163.664 21.3107 163.308 20.8323C162.951 20.3534 162.773 19.7801 162.773 19.1119C162.773 18.3341 163.062 17.6912 163.641 17.1828C164.219 16.6739 164.957 16.42 165.854 16.42C166.512 16.42 167.081 16.5596 167.563 16.8388C168.044 17.1179 168.419 17.5293 168.689 18.0726L167.611 18.7606C167.367 18.3371 167.093 18.0215 166.789 17.8145C166.485 17.6075 166.141 17.5044 165.757 17.5044C165.268 17.5044 164.868 17.6539 164.557 17.9532C164.245 18.2521 164.089 18.6335 164.089 19.0973C164.089 19.4859 164.209 19.8226 164.448 20.1065C164.687 20.3908 165.059 20.6425 165.562 20.8619L167.125 21.5499Z" fill="#001066"/>
<path d="M46.6814 24.9669C46.6814 37.6716 36.3817 47.9717 23.6766 47.9717C10.9716 47.9717 0.671875 37.6716 0.671875 24.9669C0.671875 12.2619 10.9716 1.96219 23.6766 1.96219C36.3817 1.96219 46.6814 12.2619 46.6814 24.9669Z" fill="#5489E6"/>
<path d="M20.8965 38.9531L33.5316 18.9185H23.2761V16.4775H38.0606L25.5484 36.4047H37.5538V38.9531H20.8965Z" fill="white"/>
<path d="M24.0418 32.4725L25.7368 29.7841L17.1606 10.0076L7.06445 33.3589H9.93838L17.1606 15.9143L24.0418 32.4725Z" fill="white"/>
<path d="M55.6714 33.019H54.7129V16.9144H55.6714V33.019Z" fill="#F17720"/>
<path d="M73.7798 34.1284H75.1039L74.4541 32.2633H74.436L73.7798 34.1284ZM74.0474 31.5165H74.8552L76.5258 35.854H75.7115L75.3044 34.7056H73.5733L73.1661 35.854H72.3828L74.0474 31.5165Z" fill="#F17720"/>
<path d="M80.4731 32.8954C80.3456 32.3973 80.0235 32.0326 79.3917 32.0326C78.4624 32.0326 78.0737 32.8525 78.0737 33.6852C78.0737 34.5171 78.4624 35.3378 79.3917 35.3378C80.066 35.3378 80.4366 34.8331 80.4972 34.2014H81.2384C81.1779 35.2403 80.4426 35.957 79.3917 35.957C78.0918 35.957 77.3145 34.9246 77.3145 33.6852C77.3145 32.4458 78.0918 31.4134 79.3917 31.4134C80.3696 31.419 81.1413 31.9596 81.2324 32.8954H80.4731Z" fill="#F17720"/>
<path d="M85.4633 32.8954C85.3358 32.3973 85.0137 32.0326 84.382 32.0326C83.4526 32.0326 83.064 32.8525 83.064 33.6852C83.064 34.5171 83.4526 35.3378 84.382 35.3378C85.0562 35.3378 85.4268 34.8331 85.4878 34.2014H86.2286C86.1681 35.2403 85.4333 35.957 84.382 35.957C83.082 35.957 82.3047 34.9246 82.3047 33.6852C82.3047 32.4458 83.082 31.4134 84.382 31.4134C85.3598 31.419 86.1316 31.9596 86.2231 32.8954H85.4633Z" fill="#F17720"/>
<path d="M88.0546 33.6852C88.0546 34.5171 88.4429 35.3378 89.3726 35.3378C90.302 35.3378 90.6911 34.5171 90.6911 33.6852C90.6911 32.8529 90.302 32.0326 89.3726 32.0326C88.4429 32.0326 88.0546 32.8529 88.0546 33.6852ZM91.4499 33.6852C91.4499 34.9246 90.6726 35.957 89.3726 35.957C88.0727 35.957 87.2949 34.9246 87.2949 33.6852C87.2949 32.4458 88.0727 31.4134 89.3726 31.4134C90.6726 31.4134 91.4499 32.4458 91.4499 33.6852Z" fill="#F17720"/>
<path d="M92.6992 31.5164H93.4585V34.0434C93.4585 34.6266 93.495 35.3012 94.4793 35.3012C95.4632 35.3012 95.4997 34.6266 95.4997 34.0434V31.5164H96.259V34.2925C96.259 35.4043 95.5482 35.957 94.4793 35.957C93.41 35.957 92.6992 35.4043 92.6992 34.2925V31.5164Z" fill="#F17720"/>
<path d="M97.709 31.5165H98.5108L100.491 34.7116H100.503V31.5165H101.226V35.854H100.424L98.4502 32.6644H98.4322V35.854H97.709V31.5165Z" fill="#F17720"/>
<path d="M102.316 31.5165H105.828V32.1723H104.449V35.854H103.689V32.1723H102.316V31.5165Z" fill="#F17720"/>
<path d="M106.938 31.517H107.697V35.8545H106.938V31.517Z" fill="#F17720"/>
<path d="M109.201 31.5165H110.003L111.984 34.7116H111.996V31.5165H112.718V35.854H111.917L109.942 32.6644H109.924V35.854H109.201V31.5165Z" fill="#F17720"/>
<path d="M118.008 35.854H117.522L117.407 35.3438C117 35.8054 116.629 35.957 116.101 35.957C114.801 35.957 114.023 34.9246 114.023 33.6852C114.023 32.4458 114.801 31.4134 116.101 31.4134C117.049 31.4134 117.844 31.9176 117.96 32.8954H117.219C117.146 32.3243 116.647 32.0331 116.101 32.0331C115.171 32.0331 114.782 32.8529 114.782 33.6852C114.782 34.5175 115.171 35.3378 116.101 35.3378C116.878 35.3498 117.303 34.8817 117.316 34.1469H116.161V33.5701H118.008V35.854Z" fill="#F17720"/>
<path d="M122.645 32.4093C122.645 32.6948 122.882 32.9134 123.04 33.1325C123.301 32.956 123.551 32.7739 123.551 32.4277C123.551 32.1421 123.374 31.9296 123.107 31.9296C122.852 31.9296 122.645 32.1177 122.645 32.4093ZM122.828 33.8492C122.573 34.0068 122.16 34.1468 122.16 34.663C122.16 35.1307 122.457 35.3918 122.858 35.3918C123.362 35.3918 123.545 35.0822 123.678 34.9057L122.828 33.8492ZM124.049 35.3678C123.727 35.7625 123.338 35.939 122.833 35.939C122.038 35.939 121.467 35.4648 121.467 34.651C121.467 34.0373 121.965 33.6487 122.463 33.3936C122.239 33.108 122.026 32.8224 122.026 32.4458C122.026 31.82 122.5 31.4133 123.089 31.4133C123.648 31.4133 124.17 31.7591 124.17 32.4518C124.17 32.962 123.806 33.3266 123.387 33.5512L124.061 34.3654C124.109 34.2314 124.164 34.0618 124.194 33.7822H124.802C124.759 34.1589 124.656 34.5415 124.461 34.8451L125.294 35.8539H124.443L124.049 35.3678Z" fill="#F17720"/>
<path d="M128.158 31.5165H131.669V32.1723H130.29V35.854H129.531V32.1723H128.158V31.5165Z" fill="#F17720"/>
<path d="M133.112 34.1284H134.436L133.786 32.2633H133.768L133.112 34.1284ZM133.379 31.5165H134.187L135.858 35.854H135.044L134.637 34.7056H132.906L132.498 35.854H131.715L133.379 31.5165Z" fill="#F17720"/>
<path d="M136.5 31.5165H137.404L138.388 33.0471L139.415 31.5165H140.266L138.832 33.6062L140.369 35.854H139.446L138.364 34.1954L137.265 35.854H136.396L137.933 33.6062L136.5 31.5165Z" fill="#F17720"/>
<path d="M142.311 34.1284H143.636L142.985 32.2633H142.967L142.311 34.1284ZM142.578 31.5165H143.386L145.057 35.854H144.243L143.836 34.7056H142.105L141.697 35.854H140.914L142.578 31.5165Z" fill="#F17720"/>
<path d="M145.104 31.5165H148.615V32.1723H147.236V35.854H146.476V32.1723H145.104V31.5165Z" fill="#F17720"/>
<path d="M149.725 31.517H150.484V35.8545H149.725V31.517Z" fill="#F17720"/>
<path d="M152.549 33.6852C152.549 34.5171 152.937 35.3378 153.867 35.3378C154.796 35.3378 155.185 34.5171 155.185 33.6852C155.185 32.8529 154.796 32.0326 153.867 32.0326C152.937 32.0326 152.549 32.8529 152.549 33.6852ZM155.944 33.6852C155.944 34.9246 155.167 35.957 153.867 35.957C152.567 35.957 151.789 34.9246 151.789 33.6852C151.789 32.4458 152.567 31.4134 153.867 31.4134C155.167 31.4134 155.944 32.4458 155.944 33.6852Z" fill="#F17720"/>
<path d="M157.211 31.5165H158.013L159.993 34.7116H160.005V31.5165H160.728V35.854H159.926L157.952 32.6644H157.934V35.854H157.211V31.5165Z" fill="#F17720"/>
</svg>
