<svg width="216" height="59" viewBox="0 0 216 59" fill="none" xmlns="http://www.w3.org/2000/svg">
<g clip-path="url(#clip0_892_2882)">
<path d="M13.5012 36.9123C10.9512 33.8373 9.37617 29.8623 9.37617 25.5123C9.37617 15.6873 17.4012 7.66231 27.2262 7.66231C32.1762 7.66231 36.6762 9.6873 39.9012 12.9873L44.6262 8.26231C40.2012 3.76231 34.0512 0.987305 27.2262 0.987305C13.7262 0.987305 2.70117 12.0123 2.70117 25.5123C2.70117 32.3373 5.55117 38.5623 10.0512 42.9873L13.5012 36.9123ZM35.7762 41.1873C33.2262 42.5373 30.3762 43.3623 27.3012 43.3623C24.2262 43.3623 21.3012 42.6123 18.7512 41.1873L15.5262 47.0373C19.0512 48.9873 23.0262 50.0373 27.3012 50.0373C31.5762 50.0373 35.5512 48.9123 39.0762 47.0373L35.7762 41.1873Z" fill="#00A3DD"/>
<path d="M18.675 41.2619L27.225 25.8869L35.7 41.2619C36.825 40.6619 37.95 39.9119 38.85 39.0869C38.85 39.0869 40.05 38.0369 40.875 36.9869L27.15 12.4619L13.35 36.9869C14.925 38.6369 16.725 40.1369 18.675 41.2619ZM10.05 42.9869L1.5 58.2869H9.225L15.45 47.0369C13.5 45.9869 11.625 44.6369 10.05 42.9869ZM52.95 58.2869L44.4 43.0619C43.275 44.1869 41.85 45.2369 41.85 45.2369C40.95 45.9119 39.975 46.5119 39 47.0369L45.225 58.2869H52.95Z" fill="#D22630"/>
<path d="M41.8496 45.2371C41.8496 45.2371 43.2746 44.1871 44.3996 43.0621L40.9496 36.9871C40.1246 38.0371 38.9246 39.0871 38.9246 39.0871C37.9496 39.9121 36.8996 40.6621 35.7746 41.2621L38.9996 47.1121C39.9746 46.5121 40.9496 45.9121 41.8496 45.2371ZM18.6746 41.2621C16.6496 40.1371 14.9246 38.7121 13.4246 36.9121L9.97461 42.9871C11.5496 44.5621 13.4246 45.9121 15.3746 47.0371L18.6746 41.2621Z" fill="#143672"/>
<path d="M73.5742 27.05C72.9742 27.65 72.1492 27.95 71.2492 27.95C68.9242 27.95 67.9492 26.45 67.9492 24.8C67.9492 23.225 68.9992 21.575 71.2492 21.575C72.0742 21.575 72.8992 21.875 73.4992 22.55L72.6742 23.375C72.2992 23 71.7742 22.85 71.2492 22.85C69.8242 22.85 69.2992 23.9 69.2992 24.8C69.2992 25.7 69.8242 26.75 71.2492 26.75C71.7742 26.75 72.3742 26.525 72.7492 26.15L73.5742 27.05ZM79.2742 27.8V25.4H76.4992V27.8H75.1492V21.65H76.4992V24.125H79.2742V21.65H80.6242V27.8H79.2742ZM85.4992 23.075L84.4492 25.55H86.5492L85.4992 23.075ZM87.0742 26.75H83.9242L83.4742 27.8H81.9742L84.7492 21.65H86.2492L89.0242 27.8H87.5242L87.0742 26.75ZM91.7992 22.85V24.65H93.3742C93.9742 24.65 94.2742 24.2 94.2742 23.825C94.2742 23.375 93.9742 22.925 93.3742 22.925H91.7992M95.8492 27.8H94.3492L92.7742 25.775H91.7992V27.8H90.4492V21.65H93.3742C94.8742 21.65 95.6242 22.625 95.6242 23.75C95.6242 24.575 95.3992 25.25 94.1992 25.7L95.8492 27.725V27.8ZM98.7742 22.85H96.8992V21.65H101.999V22.85H100.124V27.8H98.7742V22.85ZM108.224 27.8H103.574V21.65H108.149V22.925H104.924V24.125H107.924V25.325H104.924V26.6H108.224V27.8ZM111.449 22.85V24.65H113.024C113.624 24.65 113.924 24.2 113.924 23.825C113.924 23.375 113.624 22.925 113.024 22.925H111.449M115.499 27.8H113.999L112.424 25.775H111.449V27.8H110.099V21.65H113.024C114.524 21.65 115.274 22.625 115.274 23.75C115.274 24.575 115.049 25.25 113.849 25.7L115.499 27.725V27.8ZM121.799 27.8H117.149V21.65H121.724V22.925H118.499V24.125H121.499V25.325H118.499V26.6H121.799V27.8ZM125.024 26.525H126.224C127.574 26.525 127.949 25.55 127.949 24.65C127.949 23.75 127.499 22.85 126.224 22.85H125.024V26.525ZM126.149 21.65C128.249 21.65 129.224 23.075 129.224 24.65C129.224 26.225 128.324 27.8 126.149 27.8H123.599V21.65H126.149ZM136.349 23.075L135.299 25.55H137.399L136.349 23.075ZM137.924 26.75H134.774L134.324 27.8H132.824L135.599 21.65H137.099L139.874 27.8H138.374L137.924 26.75ZM146.249 27.05C145.649 27.65 144.824 27.95 143.924 27.95C141.599 27.95 140.624 26.45 140.624 24.8C140.624 23.225 141.674 21.575 143.924 21.575C144.749 21.575 145.574 21.875 146.174 22.55L145.349 23.375C144.974 23 144.449 22.85 143.924 22.85C142.499 22.85 141.974 23.9 141.974 24.8C141.974 25.7 142.499 26.75 143.924 26.75C144.449 26.75 145.049 26.525 145.424 26.15L146.249 27.05ZM152.924 27.05C152.324 27.65 151.499 27.95 150.599 27.95C148.274 27.95 147.299 26.45 147.299 24.8C147.299 23.225 148.349 21.575 150.599 21.575C151.424 21.575 152.249 21.875 152.849 22.55L152.024 23.375C151.649 23 151.124 22.85 150.599 22.85C149.174 22.85 148.649 23.9 148.649 24.8C148.649 25.7 149.174 26.75 150.599 26.75C151.124 26.75 151.724 26.525 152.099 26.15L152.924 27.05ZM157.349 22.775C156.149 22.775 155.399 23.675 155.399 24.8C155.399 25.925 156.224 26.75 157.349 26.75C158.549 26.75 159.299 25.925 159.299 24.8C159.299 23.6 158.474 22.775 157.349 22.775ZM157.349 27.95C155.399 27.95 154.049 26.75 154.049 24.725C154.049 22.7 155.399 21.5 157.349 21.5C159.299 21.5 160.649 22.7 160.649 24.725C160.649 26.75 159.299 27.95 157.349 27.95ZM167.924 21.65V25.1C167.924 26.9 166.874 27.875 165.299 27.95C163.724 28.025 162.299 27.05 162.299 25.1V21.65H163.649V25.1C163.649 26.225 164.249 26.75 165.299 26.75C166.199 26.675 166.574 26.075 166.574 25.1V21.65H167.924ZM174.224 25.625L174.074 23.75V21.65H175.499V27.8H174.299L171.224 23.9L171.299 25.925V27.8H169.949V21.65H171.074L174.224 25.625ZM178.949 22.85H177.074V21.65H182.174V22.85H180.299V27.8H178.949V22.85ZM185.999 23.075L184.949 25.55H187.049L185.999 23.075ZM187.499 26.75H184.349L183.899 27.8H182.399L185.174 21.65H186.674L189.449 27.8H187.949L187.499 26.75ZM195.149 25.625L195.074 23.75V21.65H196.424V27.8H195.224L192.224 23.9V27.8H190.874V21.65H191.999L195.149 25.625ZM199.874 22.85H197.999V21.65H203.099V22.85H201.224V27.8H199.874V22.85ZM208.274 23.15C207.899 22.775 207.299 22.625 206.849 22.625C206.249 22.625 205.724 22.85 205.724 23.3C205.724 23.825 206.249 23.975 207.074 24.05C208.274 24.125 209.399 24.65 209.399 26.075C209.399 27.425 208.124 28.025 206.774 28.025C205.724 28.025 204.599 27.65 204.074 26.75L204.899 25.925C205.349 26.525 206.174 26.825 206.774 26.825C207.524 26.825 207.974 26.525 207.974 26.075C207.974 25.55 207.599 25.325 206.699 25.25C205.424 25.1 204.224 24.8 204.299 23.375C204.299 22.175 205.499 21.5 206.699 21.5C207.674 21.5 208.349 21.725 209.024 22.475L208.274 23.15ZM91.7992 34.025L90.8992 36.05H92.6992L91.7992 34.025ZM92.9242 36.725H90.5992L90.2242 37.625H89.4742L91.4242 33.275H92.1742L94.1242 37.625H93.3742L92.9242 36.725ZM98.5492 33.275V35.825C98.5492 37.1 97.7242 37.7 96.6742 37.7C95.6992 37.7 94.8742 37.025 94.8742 35.825V33.275H95.5492V35.825C95.5492 36.575 95.9992 37.025 96.6742 37.025C97.3492 37.025 97.8742 36.575 97.8742 35.825V33.275H98.5492ZM102.599 34.25C102.374 33.95 101.999 33.8 101.549 33.8C100.949 33.8 100.574 34.025 100.574 34.475C100.574 34.925 101.024 35 101.624 35.075C102.524 35.225 103.349 35.45 103.349 36.425C103.349 37.4 102.449 37.775 101.549 37.775C100.724 37.775 100.049 37.55 99.6742 36.8L100.199 36.425C100.499 36.95 101.024 37.1 101.549 37.1C102.074 37.1 102.674 36.95 102.674 36.35C102.674 35.9 102.149 35.75 101.549 35.675C100.724 35.525 99.8992 35.375 99.8992 34.4C99.8992 33.5 100.799 33.125 101.549 33.125C102.149 33.125 102.824 33.275 103.199 33.875L102.599 34.25ZM105.449 33.875H104.024V33.275H107.549V33.875H106.124V37.55H105.449V33.875ZM109.274 33.875V35.45H110.624C111.224 35.45 111.449 35.075 111.449 34.7C111.449 34.325 111.224 33.875 110.624 33.875H109.274ZM112.349 37.625H111.524L110.174 36.125H109.274V37.625H108.599V33.275H110.624C111.599 33.275 112.124 33.95 112.124 34.7C112.124 35.3 111.824 35.9 110.924 36.05L112.199 37.475L112.349 37.625ZM115.274 34.025L114.374 36.05H116.174L115.274 34.025ZM116.474 36.725H114.149L113.774 37.625H113.024L114.974 33.275H115.724L117.674 37.625H116.924L116.474 36.725ZM119.324 33.275V36.95H121.574V37.625H118.649V33.275H119.324ZM122.699 33.275H123.374V37.625H122.699V33.275ZM126.674 34.025L125.774 36.05H127.574L126.674 34.025ZM127.874 36.725H125.549L125.174 37.625H124.424L126.374 33.275H127.124L129.074 37.625H128.324L127.874 36.725ZM132.449 35.15V34.175H133.049V35.15H134.024V35.75H133.049V36.725H132.449V35.75H131.474V35.15H132.449ZM140.174 36.35V33.275H140.849V37.625H140.324L137.924 34.55V37.625H137.174V33.275H137.699L140.174 36.35ZM145.574 37.625H142.349V33.275H145.499V33.95H143.099V35.15H145.499V35.825H143.099V37.025H145.574V37.625ZM151.274 37.625H150.674L150.149 36.05L149.624 34.625L149.174 36.05L148.574 37.625H147.974L146.399 33.275H147.224L148.274 36.575L149.399 33.275H149.849L150.974 36.575L152.099 33.275H152.849L151.274 37.625ZM155.474 33.275H158.624V33.575L156.299 36.95H158.624V37.625H155.324V37.175L157.649 33.875H155.474V33.275ZM163.049 37.625H159.824V33.275H162.974V33.95H160.499V35.15H162.899V35.825H160.499V37.025H162.974V37.625M166.199 34.025L165.299 36.05H167.099L166.199 34.025ZM167.324 36.725H164.999L164.624 37.625H163.874L165.824 33.275H166.574L168.524 37.625H167.774L167.324 36.725ZM170.174 33.275V36.95H172.499V37.625H169.499V33.275H170.174ZM175.349 34.025L174.449 36.05H176.249L175.349 34.025ZM176.549 36.725H174.224L173.849 37.625H173.099L175.049 33.275H175.799L177.749 37.625H176.999L176.549 36.725ZM181.649 36.35V33.275H182.399V37.625H181.799L179.399 34.55V37.625H178.649V33.275H179.249L181.649 36.35ZM184.574 36.95H185.549C186.599 36.95 187.049 36.2 187.049 35.375C187.049 34.625 186.599 33.95 185.549 33.95H184.574V36.95ZM185.474 33.275C186.974 33.275 187.649 34.325 187.649 35.375C187.649 36.5 186.974 37.55 185.474 37.55H183.824V33.275H185.474ZM212.924 21.725L213.599 22.7L214.274 21.725H214.724V23.975H214.349V22.475L213.674 23.45H213.599L212.924 22.475V23.975H212.399V21.725H212.924ZM210.149 22.175V21.725H212.099V22.175H211.349V23.975H210.824V22.175H210.149Z" fill="#58595A"/>
</g>
<defs>
<clipPath id="clip0_892_2882">
<rect width="215.225" height="57.2999" fill="white" transform="translate(0.5 0.987305)"/>
</clipPath>
</defs>
</svg>
