<svg width="256" height="43" viewBox="0 0 256 43" fill="none" xmlns="http://www.w3.org/2000/svg">
<path d="M18.0801 7.78399H11.624L9.64258 1.76172L7.66117 7.78399H1.20508L6.4859 11.4894L4.42926 17.5117L9.64258 13.7795L14.8559 17.5117L12.7954 11.4894L18.0801 7.78399Z" fill="#F17720"/>
<path d="M37.0801 7.78399H30.624L28.6426 1.76172L26.6612 7.78399H20.2051L25.4859 11.4894L23.4293 17.5117L28.6426 13.7795L33.8559 17.5117L31.7954 11.4894L37.0801 7.78399Z" fill="#F17720"/>
<path d="M56.0801 7.78399H49.624L47.6426 1.76172L45.6612 7.78399H39.2051L44.4859 11.4894L42.4293 17.5117L47.6426 13.7795L52.8559 17.5117L50.7954 11.4894L56.0801 7.78399Z" fill="#F17720"/>
<path d="M75.0801 7.78399H68.624L66.6426 1.76172L64.6612 7.78399H58.2051L63.4859 11.4894L61.4293 17.5117L66.6426 13.7795L71.8559 17.5117L69.7954 11.4894L75.0801 7.78399Z" fill="#F17720"/>
<path d="M94.0801 7.78399H87.624L85.6426 1.76172L83.6612 7.78399H77.2051L82.4859 11.4894L80.4293 17.5117L85.6426 13.7795L90.8559 17.5117L88.7954 11.4894L94.0801 7.78399Z" fill="#F17720"/>
<path d="M5.11958 24.6267V34.6367H4.11158V24.6267H1.33958V23.7167H7.90558V24.6267H5.11958ZM10.7468 27.0627C10.8448 27.0627 10.9428 27.0767 10.9568 27.0767V28.0147H10.7608C9.64081 28.0147 9.09481 28.6447 8.78681 29.1347V34.6367H7.80681V29.3167L7.72281 27.2167H8.53481L8.67481 28.1967C9.06681 27.5807 9.75281 27.0627 10.7468 27.0627ZM12.3989 27.2167H13.3649V32.2707C13.3649 33.3907 13.9949 33.9087 14.9749 33.9087C16.1509 33.9087 16.7249 33.2507 17.0329 32.7607V27.2167H18.0129V32.5367L18.0969 34.6367H17.2849L17.1309 33.6007C16.7109 34.2587 15.9129 34.7907 14.6529 34.7907C13.1689 34.7907 12.3989 33.7967 12.3989 32.4107V27.2167ZM22.5954 33.9647C23.7994 33.9647 24.4434 33.4327 24.4434 32.6067C24.4434 31.5987 23.8554 31.3607 22.4134 31.2347C20.4114 31.0667 19.8374 30.3667 19.8374 29.2607V29.1767C19.8374 27.8887 20.8594 27.0627 22.5954 27.0627C24.6254 27.0627 25.3674 28.0987 25.3674 29.5547V29.6107H24.4014C24.4014 28.5467 23.9814 27.8887 22.5954 27.8887C21.4754 27.8887 20.8174 28.3507 20.8174 29.1767C20.8174 29.9467 21.1814 30.3667 22.7914 30.4927C24.6534 30.6467 25.4514 31.1787 25.4514 32.5367V32.6067C25.4514 33.8947 24.4294 34.7907 22.5954 34.7907C20.4954 34.7907 19.7394 33.5587 19.7394 32.4247V32.3687H20.7194C20.7194 33.1807 21.1254 33.9647 22.5954 33.9647ZM28.6818 27.2167H31.0478V28.0987H28.6818V32.4527C28.6818 33.6287 29.1718 33.9087 30.1098 33.9087C30.4178 33.9087 30.7958 33.8387 30.9078 33.7827V34.6367C30.7958 34.6787 30.4598 34.7907 29.8718 34.7907C28.6118 34.7907 27.7018 34.1887 27.7018 32.5787V28.0987H26.5258V27.2167H27.7018V25.1167H28.6818V27.2167ZM38.6273 31.3327H33.3773C33.4193 32.9567 34.1053 33.9647 35.5893 33.9647C37.0733 33.9647 37.6893 33.0547 37.6893 32.2567H38.6273V32.3127C38.6273 33.4607 37.6753 34.7907 35.5893 34.7907C33.3493 34.7907 32.3833 33.1387 32.3833 31.0807V30.7727C32.3833 28.7147 33.3493 27.0627 35.5193 27.0627C37.6893 27.0627 38.6273 28.7147 38.6273 30.7727V31.3327ZM35.5053 27.8887C34.1053 27.8887 33.4193 28.9107 33.3773 30.5207H37.6333C37.5773 28.9107 36.9193 27.8887 35.5053 27.8887ZM42.8685 27.0627C43.9045 27.0627 44.5625 27.5107 44.9685 28.0707V23.4367H45.9485V32.5367L46.0325 34.6367H45.2065L45.0665 33.6427C44.6885 34.2727 43.9885 34.7907 42.8685 34.7907C40.8385 34.7907 40.0265 33.1527 40.0265 31.0947V30.7587C40.0265 28.7007 40.8385 27.0627 42.8685 27.0627ZM43.0785 33.9087C44.0865 33.9087 44.6605 33.2507 44.9685 32.7607V29.0927C44.6605 28.6027 44.0865 27.9447 43.0785 27.9447C41.6785 27.9447 41.0205 29.0367 41.0205 30.7587V31.0947C41.0205 32.8167 41.6785 33.9087 43.0785 33.9087ZM51.5798 23.4367V28.0707C51.9718 27.5107 52.6438 27.0627 53.6798 27.0627C55.7098 27.0627 56.5218 28.7007 56.5218 30.7587V31.0947C56.5218 33.1527 55.7098 34.7907 53.6798 34.7907C52.5458 34.7907 51.8598 34.2727 51.4678 33.6287L51.3278 34.6367H50.5158L50.5998 32.5367V23.4367H51.5798ZM51.5798 29.0927V32.7607C51.8738 33.2507 52.4478 33.9087 53.4558 33.9087C54.8558 33.9087 55.5138 32.8167 55.5138 31.0947V30.7587C55.5138 29.0367 54.8558 27.9447 53.4558 27.9447C52.4478 27.9447 51.8738 28.6027 51.5798 29.0927ZM60.3669 33.2787L62.4949 27.2167H63.5449L60.8849 34.3567L59.8349 37.4367H58.7009L59.8629 34.3567L57.2029 27.2167H58.2529L60.3669 33.2787ZM67.1788 31.1367H68.1728C68.1728 33.0407 69.0828 33.8947 70.5948 33.8947H70.7348C71.9808 33.8947 73.1568 33.1387 73.1568 31.3747V31.1227C73.1568 29.3587 71.9808 28.6167 70.7068 28.6167H70.5808C69.5728 28.6167 68.5228 29.1067 68.1028 30.1007L67.2628 29.8487L67.5288 23.7167H74.0108V24.6267H68.4948L68.3128 28.5047C68.9008 28.0147 69.7268 27.7207 70.6928 27.7207C72.6668 27.7207 74.1508 28.9247 74.1508 31.1647V31.3327C74.1508 33.5867 72.6668 34.7907 70.6648 34.7907C68.2848 34.7907 67.1788 33.4467 67.1788 31.2907V31.1367ZM75.7274 26.8527C75.7274 24.9627 76.6794 23.5627 79.0594 23.5627C81.4394 23.5627 82.3914 24.9627 82.3914 26.8527V31.5007C82.3914 33.3907 81.4394 34.7907 79.0594 34.7907C76.6794 34.7907 75.7274 33.3907 75.7274 31.5007V26.8527ZM81.3974 26.9647C81.3974 25.4527 80.8094 24.4587 79.1014 24.4587H79.0174C77.3094 24.4587 76.7214 25.4527 76.7214 26.9647V31.3887C76.7214 32.9007 77.3094 33.8947 79.0174 33.8947H79.1014C80.8094 33.8947 81.3974 32.9007 81.3974 31.3887V26.9647ZM86.9919 25.6487H87.9159V28.7147H90.9819V29.6387H87.9159V32.7047H86.9919V29.6387H83.9259V28.7147H86.9919V25.6487ZM96.3552 23.4367V28.0707C96.7472 27.5107 97.4192 27.0627 98.4552 27.0627C100.485 27.0627 101.297 28.7007 101.297 30.7587V31.0947C101.297 33.1527 100.485 34.7907 98.4552 34.7907C97.3212 34.7907 96.6352 34.2727 96.2432 33.6287L96.1032 34.6367H95.2912L95.3752 32.5367V23.4367H96.3552ZM96.3552 29.0927V32.7607C96.6492 33.2507 97.2232 33.9087 98.2312 33.9087C99.6312 33.9087 100.289 32.8167 100.289 31.0947V30.7587C100.289 29.0367 99.6312 27.9447 98.2312 27.9447C97.2232 27.9447 96.6492 28.6027 96.3552 29.0927ZM102.825 27.2167H103.791V32.2707C103.791 33.3907 104.421 33.9087 105.401 33.9087C106.577 33.9087 107.151 33.2507 107.459 32.7607V27.2167H108.439V32.5367L108.523 34.6367H107.711L107.557 33.6007C107.137 34.2587 106.339 34.7907 105.079 34.7907C103.595 34.7907 102.825 33.7967 102.825 32.4107V27.2167ZM113.021 33.9647C114.225 33.9647 114.869 33.4327 114.869 32.6067C114.869 31.5987 114.281 31.3607 112.839 31.2347C110.837 31.0667 110.263 30.3667 110.263 29.2607V29.1767C110.263 27.8887 111.285 27.0627 113.021 27.0627C115.051 27.0627 115.793 28.0987 115.793 29.5547V29.6107H114.827C114.827 28.5467 114.407 27.8887 113.021 27.8887C111.901 27.8887 111.243 28.3507 111.243 29.1767C111.243 29.9467 111.607 30.3667 113.217 30.4927C115.079 30.6467 115.877 31.1787 115.877 32.5367V32.6067C115.877 33.8947 114.855 34.7907 113.021 34.7907C110.921 34.7907 110.165 33.5587 110.165 32.4247V32.3687H111.145C111.145 33.1807 111.551 33.9647 113.021 33.9647ZM117.704 34.6367V27.2167H118.684V34.6367H117.704ZM118.824 24.2067V25.4667H117.564V24.2067H118.824ZM126.241 34.6367H125.261V29.5827C125.261 28.4627 124.631 27.9447 123.651 27.9447C122.489 27.9447 121.915 28.6027 121.607 29.0927V34.6367H120.627V29.3167L120.543 27.2167H121.355L121.495 28.2667C121.929 27.6087 122.713 27.0627 123.987 27.0627C125.457 27.0627 126.241 28.0567 126.241 29.4427V34.6367ZM134.03 31.3327H128.78C128.822 32.9567 129.508 33.9647 130.992 33.9647C132.476 33.9647 133.092 33.0547 133.092 32.2567H134.03V32.3127C134.03 33.4607 133.078 34.7907 130.992 34.7907C128.752 34.7907 127.786 33.1387 127.786 31.0807V30.7727C127.786 28.7147 128.752 27.0627 130.922 27.0627C133.092 27.0627 134.03 28.7147 134.03 30.7727V31.3327ZM130.908 27.8887C129.508 27.8887 128.822 28.9107 128.78 30.5207H133.036C132.98 28.9107 132.322 27.8887 130.908 27.8887ZM138.369 33.9647C139.573 33.9647 140.217 33.4327 140.217 32.6067C140.217 31.5987 139.629 31.3607 138.187 31.2347C136.185 31.0667 135.611 30.3667 135.611 29.2607V29.1767C135.611 27.8887 136.633 27.0627 138.369 27.0627C140.399 27.0627 141.141 28.0987 141.141 29.5547V29.6107H140.175C140.175 28.5467 139.755 27.8887 138.369 27.8887C137.249 27.8887 136.591 28.3507 136.591 29.1767C136.591 29.9467 136.955 30.3667 138.565 30.4927C140.427 30.6467 141.225 31.1787 141.225 32.5367V32.6067C141.225 33.8947 140.203 34.7907 138.369 34.7907C136.269 34.7907 135.513 33.5587 135.513 32.4247V32.3687H136.493C136.493 33.1807 136.899 33.9647 138.369 33.9647ZM145.683 33.9647C146.887 33.9647 147.531 33.4327 147.531 32.6067C147.531 31.5987 146.943 31.3607 145.501 31.2347C143.499 31.0667 142.925 30.3667 142.925 29.2607V29.1767C142.925 27.8887 143.947 27.0627 145.683 27.0627C147.713 27.0627 148.455 28.0987 148.455 29.5547V29.6107H147.489C147.489 28.5467 147.069 27.8887 145.683 27.8887C144.563 27.8887 143.905 28.3507 143.905 29.1767C143.905 29.9467 144.269 30.3667 145.879 30.4927C147.741 30.6467 148.539 31.1787 148.539 32.5367V32.6067C148.539 33.8947 147.517 34.7907 145.683 34.7907C143.583 34.7907 142.827 33.5587 142.827 32.4247V32.3687H143.807C143.807 33.1807 144.213 33.9647 145.683 33.9647ZM156.274 31.3327H151.024C151.066 32.9567 151.752 33.9647 153.236 33.9647C154.72 33.9647 155.336 33.0547 155.336 32.2567H156.274V32.3127C156.274 33.4607 155.322 34.7907 153.236 34.7907C150.996 34.7907 150.03 33.1387 150.03 31.0807V30.7727C150.03 28.7147 150.996 27.0627 153.166 27.0627C155.336 27.0627 156.274 28.7147 156.274 30.7727V31.3327ZM153.152 27.8887C151.752 27.8887 151.066 28.9107 151.024 30.5207H155.28C155.224 28.9107 154.566 27.8887 153.152 27.8887ZM160.613 33.9647C161.817 33.9647 162.461 33.4327 162.461 32.6067C162.461 31.5987 161.873 31.3607 160.431 31.2347C158.429 31.0667 157.855 30.3667 157.855 29.2607V29.1767C157.855 27.8887 158.877 27.0627 160.613 27.0627C162.643 27.0627 163.385 28.0987 163.385 29.5547V29.6107H162.419C162.419 28.5467 161.999 27.8887 160.613 27.8887C159.493 27.8887 158.835 28.3507 158.835 29.1767C158.835 29.9467 159.199 30.3667 160.809 30.4927C162.671 30.6467 163.469 31.1787 163.469 32.5367V32.6067C163.469 33.8947 162.447 34.7907 160.613 34.7907C158.513 34.7907 157.757 33.5587 157.757 32.4247V32.3687H158.737C158.737 33.1807 159.143 33.9647 160.613 33.9647ZM172.62 34.6367L172.466 33.6007C171.976 34.2447 171.136 34.7907 169.848 34.7907C168.49 34.7907 167.706 33.9507 167.706 32.7607V32.6207C167.706 31.0107 168.924 30.5487 170.128 30.3667L172.368 30.0167V29.8207C172.368 28.5467 171.962 27.8887 170.646 27.8887C169.246 27.8887 168.924 28.7007 168.924 29.6667H167.986V29.5407C167.986 28.4207 168.476 27.0627 170.66 27.0627C172.718 27.0627 173.348 28.1827 173.348 29.8207V32.5367L173.432 34.6367H172.62ZM170.1 33.9367C171.472 33.9367 172.102 33.1947 172.368 32.7607V30.7307L170.212 31.0807C169.26 31.2487 168.686 31.7107 168.686 32.5507V32.6767C168.686 33.3347 169.106 33.9367 170.1 33.9367ZM180.778 34.6367H179.798V29.5827C179.798 28.4627 179.168 27.9447 178.188 27.9447C177.026 27.9447 176.452 28.6027 176.144 29.0927V34.6367H175.164V29.3167L175.08 27.2167H175.892L176.032 28.2667C176.466 27.6087 177.25 27.0627 178.524 27.0627C179.994 27.0627 180.778 28.0567 180.778 29.4427V34.6367ZM185.193 27.0627C186.229 27.0627 186.887 27.5107 187.293 28.0707V23.4367H188.273V32.5367L188.357 34.6367H187.531L187.391 33.6427C187.013 34.2727 186.313 34.7907 185.193 34.7907C183.163 34.7907 182.351 33.1527 182.351 31.0947V30.7587C182.351 28.7007 183.163 27.0627 185.193 27.0627ZM185.403 33.9087C186.411 33.9087 186.985 33.2507 187.293 32.7607V29.0927C186.985 28.6027 186.411 27.9447 185.403 27.9447C184.003 27.9447 183.345 29.0367 183.345 30.7587V31.0947C183.345 32.8167 184.003 33.9087 185.403 33.9087ZM193.022 34.6367V27.2167H194.002V34.6367H193.022ZM194.142 24.2067V25.4667H192.882V24.2067H194.142ZM201.559 34.6367H200.579V29.5827C200.579 28.4627 199.949 27.9447 198.969 27.9447C197.807 27.9447 197.233 28.6027 196.925 29.0927V34.6367H195.945V29.3167L195.861 27.2167H196.673L196.813 28.2667C197.247 27.6087 198.031 27.0627 199.305 27.0627C200.775 27.0627 201.559 28.0567 201.559 29.4427V34.6367ZM205.974 27.0627C207.01 27.0627 207.668 27.5107 208.074 28.0707V23.4367H209.054V32.5367L209.138 34.6367H208.312L208.172 33.6427C207.794 34.2727 207.094 34.7907 205.974 34.7907C203.944 34.7907 203.132 33.1527 203.132 31.0947V30.7587C203.132 28.7007 203.944 27.0627 205.974 27.0627ZM206.184 33.9087C207.192 33.9087 207.766 33.2507 208.074 32.7607V29.0927C207.766 28.6027 207.192 27.9447 206.184 27.9447C204.784 27.9447 204.126 29.0367 204.126 30.7587V31.0947C204.126 32.8167 204.784 33.9087 206.184 33.9087ZM211.001 34.6367V27.2167H211.981V34.6367H211.001ZM212.121 24.2067V25.4667H210.861V24.2067H212.121ZM215.94 34.6367L213.35 27.2167H214.4L216.584 33.7127L218.782 27.2167H219.832L217.228 34.6367H215.94ZM221.186 34.6367V27.2167H222.166V34.6367H221.186ZM222.306 24.2067V25.4667H221.046V24.2067H222.306ZM226.742 27.0627C227.778 27.0627 228.436 27.5107 228.842 28.0707V23.4367H229.822V32.5367L229.906 34.6367H229.08L228.94 33.6427C228.562 34.2727 227.862 34.7907 226.742 34.7907C224.712 34.7907 223.9 33.1527 223.9 31.0947V30.7587C223.9 28.7007 224.712 27.0627 226.742 27.0627ZM226.952 33.9087C227.96 33.9087 228.534 33.2507 228.842 32.7607V29.0927C228.534 28.6027 227.96 27.9447 226.952 27.9447C225.552 27.9447 224.894 29.0367 224.894 30.7587V31.0947C224.894 32.8167 225.552 33.9087 226.952 33.9087ZM231.6 27.2167H232.566V32.2707C232.566 33.3907 233.196 33.9087 234.176 33.9087C235.352 33.9087 235.926 33.2507 236.234 32.7607V27.2167H237.214V32.5367L237.298 34.6367H236.486L236.332 33.6007C235.912 34.2587 235.114 34.7907 233.854 34.7907C232.37 34.7907 231.6 33.7967 231.6 32.4107V27.2167ZM243.687 34.6367L243.533 33.6007C243.043 34.2447 242.203 34.7907 240.915 34.7907C239.557 34.7907 238.773 33.9507 238.773 32.7607V32.6207C238.773 31.0107 239.991 30.5487 241.195 30.3667L243.435 30.0167V29.8207C243.435 28.5467 243.029 27.8887 241.713 27.8887C240.313 27.8887 239.991 28.7007 239.991 29.6667H239.053V29.5407C239.053 28.4207 239.543 27.0627 241.727 27.0627C243.785 27.0627 244.415 28.1827 244.415 29.8207V32.5367L244.499 34.6367H243.687ZM241.167 33.9367C242.539 33.9367 243.169 33.1947 243.435 32.7607V30.7307L241.279 31.0807C240.327 31.2487 239.753 31.7107 239.753 32.5507V32.6767C239.753 33.3347 240.173 33.9367 241.167 33.9367ZM246.329 34.6367V23.4367H247.309V34.6367H246.329ZM251.982 33.9647C253.186 33.9647 253.83 33.4327 253.83 32.6067C253.83 31.5987 253.242 31.3607 251.8 31.2347C249.798 31.0667 249.224 30.3667 249.224 29.2607V29.1767C249.224 27.8887 250.246 27.0627 251.982 27.0627C254.012 27.0627 254.754 28.0987 254.754 29.5547V29.6107H253.788C253.788 28.5467 253.368 27.8887 251.982 27.8887C250.862 27.8887 250.204 28.3507 250.204 29.1767C250.204 29.9467 250.568 30.3667 252.178 30.4927C254.04 30.6467 254.838 31.1787 254.838 32.5367V32.6067C254.838 33.8947 253.816 34.7907 251.982 34.7907C249.882 34.7907 249.126 33.5587 249.126 32.4247V32.3687H250.106C250.106 33.1807 250.512 33.9647 251.982 33.9647Z" fill="black"/>
</svg>
