<svg width="170" height="50" viewBox="0 0 170 50" fill="none" xmlns="http://www.w3.org/2000/svg">
<path d="M68.3975 19.1271L66.6551 23.1579H70.1402L68.3975 19.1271ZM68.3975 16.2475L73.3783 27.6299H71.965L70.5439 24.272H66.2665L64.8454 27.6299H63.4316L68.3975 16.2475Z" fill="#001066"/>
<path d="M73.1162 27.6299L79.2712 17.8705H74.2753V16.6813H81.4769L75.382 26.3883H81.2304V27.6299H73.1162Z" fill="#001066"/>
<path d="M90.6748 20.9221L91.1533 20.6451C91.4921 20.4359 91.7481 20.1993 91.9198 19.9347C92.092 19.6706 92.1779 19.3816 92.1779 19.0672C92.1779 18.6936 92.0611 18.393 91.8266 18.1662C91.5922 17.9395 91.2804 17.8261 90.8917 17.8261C90.5129 17.8261 90.2037 17.9455 89.9645 18.1847C89.7249 18.4243 89.6055 18.7284 89.6055 19.0973C89.6055 19.282 89.639 19.4615 89.7064 19.6358C89.7734 19.8102 89.8722 19.9721 90.0019 20.122L90.6748 20.9221ZM92.8664 25.4692L90.2188 22.268L89.8971 22.4849C89.2989 22.8937 88.8861 23.2626 88.6594 23.5916C88.4322 23.9205 88.3193 24.2873 88.3193 24.691C88.3193 25.2695 88.5099 25.7505 88.8913 26.1348C89.2727 26.5183 89.7502 26.7107 90.3235 26.7107C90.7324 26.7107 91.1408 26.6107 91.5496 26.411C91.9585 26.2117 92.3974 25.8978 92.8664 25.4692ZM94.6456 27.6302L93.5913 26.359C93.1077 26.8477 92.5894 27.2149 92.0358 27.4623C91.4826 27.7088 90.8917 27.832 90.2634 27.832C89.2963 27.832 88.5138 27.5456 87.9151 26.9723C87.3173 26.3989 87.0176 25.6538 87.0176 24.7356C87.0176 24.0829 87.2263 23.4786 87.642 22.9225C88.0586 22.3668 88.6882 21.8467 89.5308 21.3631L89.082 20.8619C88.8423 20.5781 88.6654 20.289 88.5512 19.9944C88.4361 19.7007 88.379 19.3816 88.379 19.0376C88.379 18.3595 88.6117 17.8072 89.0781 17.3808C89.5441 16.9547 90.1488 16.7417 90.8917 16.7417C91.6446 16.7417 92.2462 16.9509 92.6976 17.37C93.1489 17.7887 93.3744 18.3445 93.3744 19.0376C93.3744 19.5757 93.2164 20.0631 92.8999 20.4995C92.5829 20.9358 92.0783 21.3631 91.3852 21.7818L93.7708 24.6613C93.9705 24.4419 94.1771 24.1911 94.3914 23.9098C94.6057 23.6281 94.8328 23.3103 95.0721 22.956L95.8726 23.8308C95.6583 24.155 95.4349 24.4578 95.203 24.7395C94.9711 25.0212 94.7281 25.2845 94.4738 25.5289L96.2239 27.6302H94.6456Z" fill="#001066"/>
<path d="M103.725 21.535H104.383C105.5 21.535 106.251 21.404 106.637 21.1425C107.024 20.8805 107.217 20.4232 107.217 19.7704C107.217 19.0721 107.019 18.5812 106.622 18.2969C106.226 18.0126 105.48 17.8705 104.383 17.8705H103.725V21.535ZM103.725 22.7165V27.6299H102.453V16.6817H104.749C105.552 16.6817 106.143 16.7238 106.522 16.8088C106.901 16.8934 107.229 17.033 107.509 17.2276C107.857 17.4767 108.131 17.8185 108.328 18.2518C108.524 18.6856 108.623 19.167 108.623 19.6952C108.623 20.2239 108.524 20.7049 108.328 21.1386C108.131 21.5724 107.857 21.9138 107.509 22.1633C107.229 22.3626 106.901 22.5047 106.525 22.5893C106.149 22.6744 105.557 22.7165 104.749 22.7165H104.383H103.725Z" fill="#001066"/>
<path d="M112.855 19.1271L111.113 23.1579H114.598L112.855 19.1271ZM112.855 16.2475L117.836 27.6299H116.423L115.002 24.272H110.724L109.303 27.6299H107.89L112.855 16.2475Z" fill="#001066"/>
<path d="M120.236 17.7807V21.4453H121.231C122.248 21.4453 122.929 21.3143 123.272 21.0527C123.616 20.7908 123.789 20.3334 123.789 19.6802C123.789 18.9772 123.611 18.485 123.258 18.2033C122.903 17.9216 122.228 17.7807 121.231 17.7807H120.236ZM118.965 27.6299V16.6813H121.537C122.27 16.6813 122.808 16.7225 123.149 16.805C123.49 16.887 123.791 17.0283 124.05 17.2271C124.374 17.4818 124.626 17.8219 124.806 18.248C124.985 18.6744 125.075 19.1468 125.075 19.6652C125.075 20.5627 124.824 21.2443 124.323 21.7107C123.822 22.1766 123.088 22.4098 122.121 22.4098H121.889L126.069 27.6299H124.416L120.423 22.4098H120.236V27.6299H118.965Z" fill="#001066"/>
<path d="M129.075 27.6299V17.9229H125.979V16.6813H133.473V17.9229H130.391V27.6299H129.075Z" fill="#001066"/>
<path d="M134.924 27.6306V16.2483L142.933 24.998V16.682H144.175V28.0566L136.165 19.4044V27.6306H134.924Z" fill="#001066"/>
<path d="M146.792 27.6299V16.6813H152.565V17.8705H148.093V21.0115H152.565V22.223H148.093V26.4184H152.565V27.6299H146.792Z" fill="#001066"/>
<path d="M156.043 17.7807V21.4453H157.037C158.055 21.4453 158.735 21.3143 159.079 21.0527C159.423 20.7908 159.595 20.3334 159.595 19.6802C159.595 18.9772 159.418 18.485 159.064 18.2033C158.71 17.9216 158.035 17.7807 157.037 17.7807H156.043ZM154.771 27.6299V16.6813H157.344C158.077 16.6813 158.614 16.7225 158.956 16.805C159.297 16.887 159.597 17.0283 159.857 17.2271C160.181 17.4818 160.433 17.8219 160.613 18.248C160.792 18.6744 160.882 19.1468 160.882 19.6652C160.882 20.5627 160.631 21.2443 160.13 21.7107C159.629 22.1766 158.895 22.4098 157.928 22.4098H157.696L161.876 27.6299H160.223L156.23 22.4098H156.043V27.6299H154.771Z" fill="#001066"/>
<path d="M166.953 21.5504C167.666 21.8545 168.204 22.2586 168.565 22.7619C168.927 23.2657 169.108 23.8613 169.108 24.5493C169.108 25.5568 168.787 26.3681 168.146 26.9839C167.506 27.5993 166.657 27.9072 165.6 27.9072C164.737 27.9072 164.015 27.6869 163.431 27.2454C162.848 26.8044 162.454 26.1774 162.25 25.3644L163.431 24.7808C163.591 25.4443 163.854 25.9468 164.22 26.2882C164.587 26.63 165.047 26.8005 165.6 26.8005C166.253 26.8005 166.782 26.6124 167.185 26.2358C167.589 25.8596 167.791 25.3696 167.791 24.7662C167.791 24.2775 167.65 23.8527 167.369 23.4911C167.087 23.1295 166.662 22.8242 166.094 22.5751L164.762 22.0065C164.034 21.7024 163.492 21.3112 163.136 20.8328C162.779 20.3539 162.601 19.7806 162.601 19.1124C162.601 18.3346 162.89 17.6917 163.469 17.1832C164.047 16.6743 164.785 16.4205 165.682 16.4205C166.34 16.4205 166.91 16.5601 167.391 16.8393C167.872 17.1184 168.247 17.5298 168.517 18.0731L167.44 18.7611C167.195 18.3376 166.921 18.022 166.617 17.815C166.313 17.608 165.969 17.5049 165.585 17.5049C165.096 17.5049 164.696 17.6544 164.385 17.9537C164.073 18.2526 163.918 18.634 163.918 19.0978C163.918 19.4864 164.037 19.8231 164.277 20.107C164.515 20.3913 164.887 20.643 165.391 20.8624L166.953 21.5504Z" fill="#001066"/>
<path d="M46.5095 24.9669C46.5095 37.6716 36.2098 47.9717 23.5047 47.9717C10.7997 47.9717 0.5 37.6716 0.5 24.9669C0.5 12.2619 10.7997 1.96219 23.5047 1.96219C36.2098 1.96219 46.5095 12.2619 46.5095 24.9669Z" fill="#5489E6"/>
<path d="M20.7256 38.9531L33.3607 18.9185H23.1052V16.4775H37.8897L25.3775 36.4047H37.3829V38.9531H20.7256Z" fill="white"/>
<path d="M23.8689 32.473L25.564 29.7846L16.9877 10.0081L6.8916 33.3594H9.76553L16.9877 15.9148L23.8689 32.473Z" fill="white"/>
<path d="M55.4996 33.0195H54.541V16.9149H55.4996V33.0195Z" fill="#F17720"/>
<path d="M73.6089 34.1289H74.933L74.2832 32.2638H74.2652L73.6089 34.1289ZM73.8765 31.517H74.6843L76.3549 35.8545H75.5406L75.1335 34.7061H73.4024L72.9952 35.8545H72.2119L73.8765 31.517Z" fill="#F17720"/>
<path d="M80.3003 32.8954C80.1727 32.3973 79.8506 32.0326 79.2189 32.0326C78.2895 32.0326 77.9009 32.8525 77.9009 33.6852C77.9009 34.5171 78.2895 35.3378 79.2189 35.3378C79.8931 35.3378 80.2638 34.8331 80.3243 34.2014H81.0656C81.005 35.2403 80.2698 35.957 79.2189 35.957C77.9189 35.957 77.1416 34.9246 77.1416 33.6852C77.1416 32.4458 77.9189 31.4134 79.2189 31.4134C80.1968 31.419 80.9685 31.9596 81.0595 32.8954H80.3003Z" fill="#F17720"/>
<path d="M85.2915 32.8954C85.1639 32.3973 84.8418 32.0326 84.2101 32.0326C83.2808 32.0326 82.8921 32.8525 82.8921 33.6852C82.8921 34.5171 83.2808 35.3378 84.2101 35.3378C84.8843 35.3378 85.255 34.8331 85.316 34.2014H86.0568C85.9962 35.2403 85.2614 35.957 84.2101 35.957C82.9101 35.957 82.1328 34.9246 82.1328 33.6852C82.1328 32.4458 82.9101 31.4134 84.2101 31.4134C85.188 31.419 85.9597 31.9596 86.0512 32.8954H85.2915Z" fill="#F17720"/>
<path d="M87.8828 33.6852C87.8828 34.5171 88.271 35.3378 89.2008 35.3378C90.1301 35.3378 90.5192 34.5171 90.5192 33.6852C90.5192 32.8529 90.1301 32.0326 89.2008 32.0326C88.271 32.0326 87.8828 32.8529 87.8828 33.6852ZM91.278 33.6852C91.278 34.9246 90.5007 35.957 89.2008 35.957C87.9008 35.957 87.123 34.9246 87.123 33.6852C87.123 32.4458 87.9008 31.4134 89.2008 31.4134C90.5007 31.4134 91.278 32.4458 91.278 33.6852Z" fill="#F17720"/>
<path d="M92.5273 31.5164H93.2866V34.0434C93.2866 34.6266 93.3231 35.3012 94.3074 35.3012C95.2913 35.3012 95.3278 34.6266 95.3278 34.0434V31.5164H96.0871V34.2925C96.0871 35.4043 95.3764 35.957 94.3074 35.957C93.2381 35.957 92.5273 35.4043 92.5273 34.2925V31.5164Z" fill="#F17720"/>
<path d="M97.5361 31.517H98.3379L100.319 34.7121H100.331V31.517H101.053V35.8545H100.252L98.2774 32.6649H98.2593V35.8545H97.5361V31.517Z" fill="#F17720"/>
<path d="M102.145 31.517H105.656V32.1728H104.277V35.8545H103.517V32.1728H102.145V31.517Z" fill="#F17720"/>
<path d="M106.766 31.517H107.525V35.8545H106.766V31.517Z" fill="#F17720"/>
<path d="M109.03 31.517H109.832L111.813 34.7121H111.825V31.517H112.548V35.8545H111.746L109.772 32.6649H109.753V35.8545H109.03V31.517Z" fill="#F17720"/>
<path d="M117.836 35.854H117.349L117.234 35.3438C116.827 35.8054 116.457 35.957 115.928 35.957C114.628 35.957 113.851 34.9246 113.851 33.6852C113.851 32.4458 114.628 31.4134 115.928 31.4134C116.876 31.4134 117.671 31.9176 117.787 32.8954H117.046C116.973 32.3243 116.475 32.0331 115.928 32.0331C114.999 32.0331 114.609 32.8529 114.609 33.6852C114.609 34.5175 114.999 35.3378 115.928 35.3378C116.705 35.3498 117.13 34.8817 117.143 34.1469H115.988V33.5701H117.836V35.854Z" fill="#F17720"/>
<path d="M122.473 32.4088C122.473 32.6944 122.71 32.9129 122.868 33.132C123.13 32.9555 123.379 32.7734 123.379 32.4272C123.379 32.1416 123.203 31.9291 122.935 31.9291C122.68 31.9291 122.473 32.1172 122.473 32.4088ZM122.656 33.8487C122.401 34.0063 121.988 34.1464 121.988 34.6626C121.988 35.1302 122.285 35.3913 122.686 35.3913C123.191 35.3913 123.373 35.0817 123.506 34.9052L122.656 33.8487ZM123.877 35.3673C123.555 35.762 123.166 35.9385 122.661 35.9385C121.866 35.9385 121.295 35.4644 121.295 34.6505C121.295 34.0368 121.793 33.6482 122.291 33.3931C122.067 33.1075 121.854 32.8219 121.854 32.4453C121.854 31.8196 122.328 31.4129 122.917 31.4129C123.476 31.4129 123.998 31.7586 123.998 32.4513C123.998 32.9615 123.634 33.3261 123.215 33.5507L123.889 34.3649C123.937 34.231 123.992 34.0613 124.022 33.7817H124.63C124.588 34.1584 124.485 34.541 124.29 34.8446L125.122 35.8534H124.271L123.877 35.3673Z" fill="#F17720"/>
<path d="M127.985 31.517H131.497V32.1728H130.118V35.8545H129.358V32.1728H127.985V31.517Z" fill="#F17720"/>
<path d="M132.941 34.1289H134.265L133.615 32.2638H133.597L132.941 34.1289ZM133.208 31.517H134.016L135.687 35.8545H134.873L134.466 34.7061H132.735L132.327 35.8545H131.544L133.208 31.517Z" fill="#F17720"/>
<path d="M136.328 31.517H137.233L138.216 33.0476L139.243 31.517H140.094L138.66 33.6067L140.197 35.8545H139.274L138.192 34.1959L137.093 35.8545H136.225L137.761 33.6067L136.328 31.517Z" fill="#F17720"/>
<path d="M142.139 34.1289H143.464L142.813 32.2638H142.795L142.139 34.1289ZM142.406 31.517H143.215L144.885 35.8545H144.071L143.664 34.7061H141.933L141.526 35.8545H140.742L142.406 31.517Z" fill="#F17720"/>
<path d="M144.932 31.517H148.443V32.1728H147.064V35.8545H146.304V32.1728H144.932V31.517Z" fill="#F17720"/>
<path d="M149.553 31.517H150.312V35.8545H149.553V31.517Z" fill="#F17720"/>
<path d="M152.376 33.6852C152.376 34.5171 152.765 35.3378 153.694 35.3378C154.623 35.3378 155.012 34.5171 155.012 33.6852C155.012 32.8529 154.623 32.0326 153.694 32.0326C152.765 32.0326 152.376 32.8529 152.376 33.6852ZM155.772 33.6852C155.772 34.9246 154.994 35.957 153.694 35.957C152.394 35.957 151.616 34.9246 151.616 33.6852C151.616 32.4458 152.394 31.4134 153.694 31.4134C154.994 31.4134 155.772 32.4458 155.772 33.6852Z" fill="#F17720"/>
<path d="M157.038 31.517H157.84L159.821 34.7121H159.833V31.517H160.555V35.8545H159.754L157.779 32.6649H157.761V35.8545H157.038V31.517Z" fill="#F17720"/>
</svg>
