<svg width="26" height="26" viewBox="0 0 26 26" fill="none" xmlns="http://www.w3.org/2000/svg">
<g clip-path="url(#clip0_935_598)">
<path d="M4.73047 2.99023H20.5832V9.98408C20.5832 14.3617 17.0345 17.9104 12.6568 17.9104C8.27923 17.9104 4.73047 14.3617 4.73047 9.98408V2.99023Z" fill="white" stroke="#F17720" stroke-width="1.5"/>
<path d="M9.27734 21.9902H16.0381Z" fill="white"/>
<path d="M9.27734 21.9902H16.0381" stroke="#F17720" stroke-width="1.5"/>
<path d="M12.6562 17.7646V21.99Z" fill="white"/>
<path d="M12.6562 17.7646V21.99" stroke="#F17720" stroke-width="1.5"/>
<path d="M5.19631 5.78809H1V7.65312C1 10.2282 3.0875 12.3157 5.66257 12.3157" fill="white"/>
<path d="M5.19631 5.78809H1V7.65312C1 10.2282 3.0875 12.3157 5.66257 12.3157" stroke="#F17720" stroke-width="1.5"/>
<path d="M20.1167 5.78809H24.313V7.65312C24.313 10.2281 22.2255 12.3157 19.6504 12.3157" fill="white"/>
<path d="M20.1167 5.78809H24.313V7.65312C24.313 10.2281 22.2255 12.3157 19.6504 12.3157" stroke="#F17720" stroke-width="1.5"/>
</g>
<defs>
<clipPath id="clip0_935_598">
<rect width="26" height="26" fill="white" transform="translate(0 -0.00976562)"/>
</clipPath>
</defs>
</svg>
