<svg width="26" height="26" viewBox="0 0 26 26" fill="none" xmlns="http://www.w3.org/2000/svg">
<g clip-path="url(#clip0_887_2424)">
<path d="M19 22.9902V20.9902C19 19.9293 18.5522 18.9119 17.7552 18.1618C16.9582 17.4116 15.8772 16.9902 14.75 16.9902H6.25C5.12283 16.9902 4.04183 17.4116 3.2448 18.1618C2.44777 18.9119 2 19.9293 2 20.9902V22.9902" fill="white"/>
<path d="M19 22.9902V20.9902C19 19.9293 18.5522 18.9119 17.7552 18.1618C16.9582 17.4116 15.8772 16.9902 14.75 16.9902H6.25C5.12283 16.9902 4.04183 17.4116 3.2448 18.1618C2.44777 18.9119 2 19.9293 2 20.9902V22.9902" stroke="#F17720" stroke-width="1.5" stroke-linejoin="round"/>
<path d="M10.4414 12.5634C12.7724 12.5634 14.6621 10.6738 14.6621 8.34276C14.6621 6.01174 12.7724 4.12207 10.4414 4.12207C8.11037 4.12207 6.2207 6.01174 6.2207 8.34276C6.2207 10.6738 8.11037 12.5634 10.4414 12.5634Z" fill="white" stroke="#F17720" stroke-width="1.5" stroke-linecap="round" stroke-linejoin="round"/>
<path d="M17.2207 3.99023C18.3401 3.99023 19.4137 4.43491 20.2052 5.22644C20.9967 6.01797 21.4414 7.09152 21.4414 8.21092C21.4414 9.33031 20.9967 10.4039 20.2052 11.1954C19.4137 11.9869 18.3401 12.4316 17.2207 12.4316" fill="white"/>
<path d="M17.2207 3.99023C18.3401 3.99023 19.4137 4.43491 20.2052 5.22644C20.9967 6.01797 21.4414 7.09152 21.4414 8.21092C21.4414 9.33031 20.9967 10.4039 20.2052 11.1954C19.4137 11.9869 18.3401 12.4316 17.2207 12.4316" stroke="#F17720" stroke-width="1.5"/>
<path d="M20 16.9902H22C23.6569 16.9902 25 18.3333 25 19.9902V22.9902" fill="white"/>
<path d="M20 16.9902H22C23.6569 16.9902 25 18.3333 25 19.9902V22.9902" stroke="#F17720" stroke-width="1.5"/>
</g>
<defs>
<clipPath id="clip0_887_2424">
<rect width="26" height="26" fill="white" transform="translate(0 -0.00976562)"/>
</clipPath>
</defs>
</svg>
