<svg width="26" height="26" viewBox="0 0 26 26" fill="none" xmlns="http://www.w3.org/2000/svg">
<g clip-path="url(#clip0_887_2387)">
<path d="M19.2305 10.1123H24.958V4.38477" fill="white"/>
<path d="M19.2305 10.1123H24.958V4.38477" stroke="#F17720" stroke-width="1.5"/>
<path d="M6.05664 6.06767C7.03079 5.09209 8.18771 4.31814 9.46124 3.79009C10.7347 3.26203 12.0999 2.99023 13.4785 2.99023C14.8572 2.99023 16.2223 3.26203 17.4959 3.79009C18.7694 4.31814 19.9263 5.09209 20.9005 6.06767L24.9575 10.1127" fill="white"/>
<path d="M6.05664 6.06767C7.03079 5.09209 8.18771 4.31814 9.46124 3.79009C10.7347 3.26203 12.0999 2.99023 13.4785 2.99023C14.8572 2.99023 16.2223 3.26203 17.4959 3.79009C18.7694 4.31814 19.9263 5.09209 20.9005 6.06767L24.9575 10.1127" stroke="#F17720" stroke-width="1.5"/>
<path d="M7.72754 16.8662H2V22.5938" fill="white"/>
<path d="M7.72754 16.8662H2V22.5938" stroke="#F17720" stroke-width="1.5"/>
<path d="M20.9009 20.9113C19.9267 21.8869 18.7698 22.6608 17.4963 23.1889C16.2227 23.7169 14.8576 23.9887 13.4789 23.9887C12.1003 23.9887 10.7351 23.7169 9.46161 23.1889C8.18808 22.6608 7.03116 21.8869 6.05701 20.9113L2 16.8662" fill="white"/>
<path d="M20.9009 20.9113C19.9267 21.8869 18.7698 22.6608 17.4963 23.1889C16.2227 23.7169 14.8576 23.9887 13.4789 23.9887C12.1003 23.9887 10.7351 23.7169 9.46161 23.1889C8.18808 22.6608 7.03116 21.8869 6.05701 20.9113L2 16.8662" stroke="#F17720" stroke-width="1.5"/>
</g>
<defs>
<clipPath id="clip0_887_2387">
<rect width="26" height="26" fill="white" transform="translate(0 -0.00976562)"/>
</clipPath>
</defs>
</svg>
