<svg width="26" height="26" viewBox="0 0 26 26" fill="none" xmlns="http://www.w3.org/2000/svg">
<g clip-path="url(#clip0_887_2407)">
<path d="M17.3192 9.43335L11.0674 15.6849L8.69473 13.3118C8.65739 13.2725 8.61256 13.2411 8.56287 13.2193C8.51319 13.1976 8.45966 13.1861 8.40544 13.1854C8.35121 13.1847 8.2974 13.1948 8.24717 13.2152C8.19694 13.2357 8.1513 13.2659 8.11295 13.3043C8.0746 13.3426 8.04431 13.3882 8.02388 13.4385C8.00344 13.4887 7.99326 13.5425 7.99394 13.5967C7.99463 13.6509 8.00616 13.7045 8.02786 13.7542C8.04956 13.8039 8.08099 13.8487 8.1203 13.8861L11.0676 16.834L17.8937 10.0076C17.9314 9.96987 17.9613 9.92509 17.9817 9.87582C18.0021 9.82654 18.0126 9.77373 18.0126 9.7204C18.0125 9.66706 18.002 9.61426 17.9816 9.56499C17.9612 9.51572 17.9313 9.47095 17.8936 9.43325C17.8558 9.39555 17.8111 9.36564 17.7618 9.34524C17.7125 9.32484 17.6597 9.31434 17.6064 9.31435C17.553 9.31436 17.5002 9.32487 17.451 9.34529C17.4017 9.36571 17.3569 9.39563 17.3192 9.43335ZM13.0067 2.80762C7.39189 2.80762 2.82422 7.37549 2.82422 12.9895C2.82463 18.6042 7.3925 23.1723 13.0071 23.1723H13.0079C18.6219 23.1723 23.1891 18.6042 23.1891 12.9895C23.1891 7.37529 18.6215 2.80762 13.0067 2.80762ZM13.0079 22.3598H13.0071C7.84059 22.3598 3.63713 18.1564 3.63672 12.9895C3.63672 7.82318 7.83998 3.62012 13.0067 3.62012C18.1734 3.62012 22.3766 7.82338 22.3766 12.9895C22.3766 18.1564 18.174 22.3598 13.0079 22.3598Z" fill="#F17720"/>
</g>
<defs>
<clipPath id="clip0_887_2407">
<rect width="26" height="26" fill="white" transform="translate(0 -0.00976562)"/>
</clipPath>
</defs>
</svg>
