<svg width="35" height="35" viewBox="0 0 35 35" fill="none" xmlns="http://www.w3.org/2000/svg">
<rect x="0.140625" y="0.149414" width="34" height="34" rx="17" fill="black"/>
<g clip-path="url(#clip0_887_2675)">
<path d="M20.1646 10.1479H21.0106L21.3166 10.2019L21.4426 10.2379C21.6466 10.2859 21.7906 10.3279 21.8746 10.3639C22.0546 10.4359 22.2226 10.5109 22.3786 10.5889C22.5346 10.6669 22.6726 10.7539 22.7926 10.8499C22.8766 10.9099 22.9906 10.9999 23.1346 11.1199C23.2306 11.2159 23.3866 11.2459 23.6026 11.2099L24.2866 11.0119L24.4486 10.9579C24.7006 10.8619 24.8866 10.7839 25.0066 10.7239C25.2466 10.6159 25.3906 10.5439 25.4386 10.5079L25.5286 10.4719V10.4539H25.5466L25.5646 10.4359H25.5826L25.6186 10.3999H25.6366V10.4539L25.6186 10.4719V10.5079H25.6006V10.5259L25.5826 10.5619C25.5826 10.5859 25.5796 10.6069 25.5736 10.6249C25.5676 10.6429 25.5196 10.7419 25.4296 10.9219C25.3396 11.1019 25.2166 11.2999 25.0606 11.5159C24.9646 11.6359 24.8326 11.7799 24.6646 11.9479C24.5806 12.0079 24.5056 12.0709 24.4396 12.1369C24.3736 12.2029 24.3226 12.2419 24.2866 12.2539L24.1966 12.3259H24.1786V12.3439H24.1606L24.1426 12.3619H24.1246V12.3799H24.1066V12.3979H24.0886H24.1786L24.6286 12.2899C24.9406 12.2299 25.2286 12.1579 25.4926 12.0739L25.9426 11.9299L26.0146 11.8939H26.0326L26.0506 11.8759H26.0686L26.1046 11.8579H26.1406V11.8939H26.1226V11.9119H26.1046V11.9299H26.0866V11.9479H26.0686V11.9659C26.0686 11.9779 25.9966 12.0739 25.8526 12.2539L25.7446 12.3979C25.6846 12.4819 25.6486 12.5239 25.6366 12.5239C25.6246 12.5239 25.6186 12.5299 25.6186 12.5419L25.6006 12.5599C25.5766 12.5959 25.4566 12.7159 25.2406 12.9199C25.0966 13.0759 24.8926 13.2619 24.6286 13.4779C24.4246 13.6459 24.3226 13.8439 24.3226 14.0719C24.3226 14.2039 24.3106 14.4379 24.2866 14.7739V14.8819C24.2746 15.0499 24.2386 15.3199 24.1786 15.6919L24.1606 15.8539C24.1006 16.2139 24.0106 16.6009 23.8906 17.0149C23.7706 17.4289 23.6146 17.8579 23.4226 18.3019C23.2786 18.6739 23.0926 19.0459 22.8646 19.4179C22.6966 19.7299 22.5226 20.0119 22.3426 20.2639L21.8386 20.9119C21.6826 21.1039 21.4726 21.3319 21.2086 21.5959L20.7766 22.0099L20.4706 22.2619C20.3626 22.3459 20.2006 22.4719 19.9846 22.6399L19.6966 22.8379C19.5046 22.9699 19.3666 23.0599 19.2826 23.1079L18.6346 23.4499C18.3226 23.6059 18.0466 23.7259 17.8066 23.8099C17.6626 23.8699 17.4286 23.9539 17.1046 24.0619L16.8886 24.1339C16.5526 24.2299 16.2406 24.3019 15.9526 24.3499C15.5686 24.4219 15.2266 24.4699 14.9266 24.4939L14.3506 24.5479H13.2886L13.1446 24.5299C13.0366 24.5299 12.9646 24.5239 12.9286 24.5119L12.2446 24.4399C11.8726 24.3799 11.5666 24.3259 11.3266 24.2779C11.2066 24.2539 10.9606 24.1759 10.5886 24.0439L10.3366 23.9719C9.80862 23.7799 9.43663 23.6299 9.22062 23.5219C8.88462 23.3539 8.68663 23.2579 8.62662 23.2339L8.51862 23.1619C8.45862 23.1259 8.41062 23.0959 8.37462 23.0719L8.23062 22.9819H8.21262L8.19462 22.9639H8.17662V22.9459H8.15862V22.9279H8.14062V22.9099H8.24862C8.27262 22.9219 8.33862 22.9279 8.44662 22.9279L8.64462 22.9459H9.32862C9.66462 22.9219 9.91662 22.8979 10.0846 22.8739C10.3006 22.8379 10.6006 22.7719 10.9846 22.6759C11.3446 22.5799 11.6626 22.4719 11.9386 22.3519L12.5506 22.0819C12.7066 21.9979 12.8926 21.8839 13.1086 21.7399L13.4866 21.4879V21.4699H13.5046L13.5226 21.4519H13.5406V21.4339L13.5586 21.4159L13.4326 21.3979C13.3246 21.3979 13.2406 21.3919 13.1806 21.3799C13.0726 21.3799 12.9466 21.3559 12.8026 21.3079C12.7066 21.2839 12.5506 21.2359 12.3346 21.1639L12.2446 21.1279C12.1126 21.0679 11.9146 20.9659 11.6506 20.8219L11.5246 20.7319C11.3806 20.6359 11.2846 20.5639 11.2366 20.5159L10.9126 20.1919C10.8526 20.1319 10.7626 20.0239 10.6426 19.8679L10.5706 19.7599C10.4866 19.6279 10.3966 19.4539 10.3006 19.2379L10.1566 18.9499V18.9319L10.1386 18.9139V18.8779H10.1926L10.3726 18.9139C10.4446 18.9259 10.6306 18.9319 10.9306 18.9319L11.2006 18.9139C11.3326 18.9139 11.4166 18.9079 11.4526 18.8959L11.6686 18.8599L11.7046 18.8419H11.7406V18.8239H11.7586L11.7226 18.8059H11.7046L11.6686 18.7879H11.5966C11.5846 18.7759 11.5666 18.7699 11.5426 18.7699L11.4886 18.7519C11.4046 18.7159 11.2546 18.6559 11.0386 18.5719C10.7866 18.4519 10.6006 18.3559 10.4806 18.2839C10.3846 18.2119 10.2526 18.1039 10.0846 17.9599C10.0006 17.8879 9.86862 17.7499 9.68862 17.5459L9.65262 17.5099C9.47262 17.2819 9.34062 17.0719 9.25662 16.8799C9.13662 16.6519 9.04662 16.4239 8.98662 16.1959C8.91462 15.9079 8.87262 15.6859 8.86062 15.5299L8.84262 15.2059H8.87862L8.89662 15.2239H8.91462L8.93262 15.2419L9.18462 15.3499C9.41262 15.4459 9.62262 15.5119 9.81462 15.5479L10.2646 15.6379H10.4806H10.4626V15.6199H10.4446V15.6019H10.4266L10.4086 15.5839H10.3906L10.2286 15.4579C10.1686 15.4099 10.0726 15.3199 9.94062 15.1879L9.65262 14.8639C9.60462 14.8039 9.54462 14.7199 9.47262 14.6119L9.38262 14.4859C9.32262 14.3539 9.24462 14.1799 9.14862 13.9639C9.05262 13.6999 8.99262 13.4959 8.96862 13.3519C8.92062 13.1719 8.89662 12.9679 8.89662 12.7399C8.88462 12.6439 8.88462 12.5179 8.89662 12.3619V12.2179C8.92062 12.0739 8.95662 11.9119 9.00462 11.7319L9.02262 11.6779C9.09462 11.4499 9.16062 11.2759 9.22062 11.1559L9.34662 10.8499L9.36462 10.8319V10.7959H9.40062V10.8139H9.41862V10.8319L9.43663 10.8499V10.8679L9.65262 11.1019C9.74862 11.2099 9.92262 11.3899 10.1746 11.6419C10.3546 11.8219 10.4686 11.9239 10.5166 11.9479C10.5286 11.9479 10.5406 11.9599 10.5526 11.9839L10.5886 12.0199C10.6246 12.0559 10.7326 12.1459 10.9126 12.2899C11.0086 12.3739 11.1946 12.5119 11.4706 12.7039L11.6326 12.8119C11.9686 13.0279 12.2986 13.2259 12.6226 13.4059C13.1266 13.6459 13.5166 13.8199 13.7926 13.9279L13.8826 13.9639C14.3146 14.1079 14.5786 14.1919 14.6746 14.2159C14.8786 14.2879 15.1666 14.3539 15.5386 14.4139C15.7066 14.4499 15.9226 14.4859 16.1866 14.5219L16.4566 14.5579L16.8706 14.5939H16.9786V14.5399L16.9426 14.3419C16.9186 14.1739 16.9066 13.9879 16.9066 13.7839C16.9066 13.5199 16.9276 13.2979 16.9696 13.1179C17.0116 12.9379 17.0686 12.7399 17.1406 12.5239C17.2126 12.3079 17.2846 12.1339 17.3566 12.0019C17.4046 11.9179 17.5006 11.7829 17.6446 11.5969C17.7886 11.4109 17.9446 11.2399 18.1126 11.0839C18.3526 10.8919 18.5686 10.7419 18.7606 10.6339C18.9766 10.5139 19.1986 10.4119 19.4266 10.3279C19.6546 10.2439 19.8286 10.1959 19.9486 10.1839L20.1646 10.1479Z" fill="white"/>
</g>
<defs>
<clipPath id="clip0_887_2675">
<rect width="18" height="18" fill="white" transform="matrix(1 0 0 -1 8.14062 26.1494)"/>
</clipPath>
</defs>
</svg>
